<svg width="544" height="362" viewBox="0 0 544 362" fill="none" xmlns="http://www.w3.org/2000/svg">
<path d="M543.677 171.038V152.847C543.677 151.13 543.338 149.429 542.681 147.842C542.024 146.255 541.06 144.813 539.846 143.599C538.631 142.384 537.189 141.421 535.603 140.763C534.016 140.106 532.315 139.768 530.597 139.768H494.431C490.962 139.768 487.636 138.39 485.183 135.937C482.73 133.484 481.352 130.157 481.352 126.688V108.497C481.352 101.274 497.208 95.4177 504.431 95.4177H505.889C509.358 95.4177 512.685 94.0397 515.138 91.5868C517.59 89.1339 518.968 85.8071 518.968 82.3382V64.1471C518.968 62.4295 518.63 60.7287 517.973 59.1418C517.316 57.5549 516.352 56.1131 515.138 54.8985C513.923 53.684 512.481 52.7205 510.894 52.0632C509.307 51.4059 507.607 51.0676 505.889 51.0676H63.9818C62.2642 51.0676 60.5634 51.4059 58.9765 52.0632C57.3897 52.7205 55.9478 53.684 54.7333 54.8985C53.5187 56.1131 52.5553 57.5549 51.898 59.1418C51.2407 60.7287 50.9024 62.4295 50.9024 64.1471V82.3382C50.9024 84.0559 51.2407 85.7567 51.898 87.3435C52.5553 88.9304 53.5187 90.3723 54.7333 91.5868C55.9478 92.8013 57.3897 93.7648 58.9765 94.4221C60.5634 95.0794 62.2642 95.4177 63.9818 95.4177C67.4507 95.4177 70.7775 96.7957 73.2304 99.2486C75.6833 101.701 77.0613 105.028 77.0613 108.497V126.688C77.0613 130.157 75.6833 133.484 73.2304 135.937C70.7776 138.39 67.4508 139.768 63.9819 139.768H13.4024C11.6848 139.768 9.98403 140.106 8.39716 140.763C6.81028 141.421 5.36842 142.384 4.15388 143.599C2.93934 144.813 1.97591 146.255 1.31861 147.842C0.661304 149.429 0.322997 151.13 0.322998 152.847V171.038C0.322998 174.507 1.70101 177.834 4.15388 180.287C6.60675 182.74 9.93356 184.118 13.4024 184.118H33.249C36.7179 184.118 40.0447 185.496 42.4976 187.949C44.9505 190.402 46.3285 193.728 46.3285 197.197V215.389C46.3285 217.106 45.9902 218.807 45.3329 220.394C44.6756 221.981 43.7121 223.423 42.4976 224.637C41.2831 225.852 39.8412 226.815 38.2543 227.472C36.6674 228.13 34.9666 228.468 33.249 228.468H33.201C29.7321 228.468 26.4053 229.846 23.9525 232.299C21.4996 234.752 20.1216 238.079 20.1216 241.547V259.739C20.1216 261.456 20.4599 263.157 21.1172 264.744C21.7745 266.331 22.7379 267.773 23.9525 268.987C25.167 270.202 26.6089 271.165 28.1957 271.822C29.7826 272.48 31.4834 272.818 33.201 272.818H36.0724C39.5413 272.818 42.8681 274.196 45.321 276.649C47.7739 279.102 49.1519 282.429 49.1519 285.897V304.089C49.1519 307.558 47.7739 310.884 45.321 313.337C42.8681 315.79 39.5413 317.168 36.0724 317.168H18.9479C17.2303 317.168 15.5295 317.506 13.9427 318.164C12.3558 318.821 10.9139 319.784 9.69938 320.999C8.48484 322.214 7.52141 323.655 6.86411 325.242C6.20681 326.829 5.86849 328.53 5.8685 330.248V348.439C5.8685 351.908 7.24651 355.234 9.69938 357.687C12.1523 360.14 15.4791 361.518 18.9479 361.518H502.911C506.38 361.518 509.707 360.14 512.16 357.687C514.612 355.234 515.99 351.908 515.99 348.439V330.248C515.99 328.53 515.652 326.829 514.995 325.242C514.337 323.655 513.374 322.214 512.16 320.999C510.945 319.784 509.503 318.821 507.916 318.164C506.329 317.506 504.629 317.168 502.911 317.168H491.57C488.102 317.168 484.775 315.79 482.322 313.337C479.869 310.884 478.491 307.558 478.491 304.089V285.897C478.491 282.429 479.869 279.102 482.322 276.649C484.775 274.196 488.102 272.818 491.57 272.818H518.31C521.779 272.818 525.106 271.44 527.559 268.987C530.012 266.534 531.39 263.207 531.39 259.739V241.547C531.39 238.079 530.012 234.752 527.559 232.299C525.106 229.846 521.779 228.468 518.31 228.468H510.199C506.73 228.468 503.403 227.09 500.95 224.637C498.497 222.184 497.119 218.857 497.119 215.389V197.197C497.119 193.728 498.497 190.402 500.95 187.949C503.403 185.496 506.73 184.118 510.199 184.118H530.597C534.066 184.118 537.393 182.74 539.846 180.287C542.299 177.834 543.677 174.507 543.677 171.038Z" fill="#DBE8EC"/>
<path d="M168.782 139.165C168.779 145.798 166.144 152.158 161.455 156.849C156.766 161.54 150.407 164.178 143.774 164.184H50.3238C45.5665 164.185 40.9769 162.426 37.4375 159.248C33.8982 156.069 31.6589 151.693 31.1503 146.963C30.6418 142.233 31.8997 137.482 34.6824 133.623C37.465 129.765 41.5759 127.071 46.2246 126.06C46.5965 120.431 49.0928 115.154 53.2085 111.296C57.3241 107.438 62.7517 105.288 68.3928 105.28C70.6771 105.28 72.9469 105.643 75.1175 106.354C78.4106 99.9849 83.5755 94.7766 89.9173 91.4303C96.2591 88.084 103.474 86.7602 110.59 87.6369C117.707 88.5137 124.385 91.5489 129.725 96.3343C135.065 101.12 138.811 107.426 140.46 114.404C143.991 113.927 147.583 114.211 150.996 115.237C154.408 116.263 157.562 118.007 160.244 120.352C162.927 122.697 165.077 125.59 166.55 128.834C168.022 132.079 168.784 135.601 168.782 139.165H168.782Z" fill="#0091B0"/>
<path d="M331.28 286.08L312.701 258.46C327.679 245.152 337.118 226.71 339.152 206.778C341.186 186.847 335.667 166.877 323.687 150.819C311.706 134.761 294.136 123.782 274.451 120.055C254.765 116.327 234.398 120.122 217.376 130.689C200.354 141.256 187.916 157.825 182.523 177.12C177.129 196.416 179.172 217.033 188.248 234.894C197.324 252.756 212.771 266.562 231.536 273.582C250.301 280.603 271.017 280.326 289.588 272.808L307.698 299.612C308.587 301.16 309.772 302.518 311.185 303.609C312.598 304.699 314.213 305.501 315.936 305.967C317.659 306.434 319.457 306.557 321.228 306.328C322.998 306.1 324.707 305.525 326.255 304.637C327.803 303.748 329.162 302.563 330.252 301.15C331.343 299.737 332.144 298.122 332.611 296.399C333.077 294.676 333.2 292.878 332.972 291.107C332.743 289.337 332.168 287.628 331.28 286.08Z" fill="#0EA5E9"/>
<path d="M259.733 255.561C291.24 255.561 316.781 230.02 316.781 198.513C316.781 167.006 291.24 141.465 259.733 141.465C228.226 141.465 202.685 167.006 202.685 198.513C202.685 230.02 228.226 255.561 259.733 255.561Z" fill="#EE781D"/>
<path d="M259.733 141.465C257.009 141.468 254.29 141.665 251.594 142.053C265.173 144.009 277.593 150.794 286.576 161.164C295.559 171.534 300.503 184.794 300.503 198.513C300.503 212.233 295.559 225.493 286.576 235.863C277.593 246.232 265.173 253.017 251.594 254.974C259.349 256.092 267.251 255.6 274.808 253.53C282.365 251.46 289.414 247.855 295.516 242.94C301.619 238.025 306.643 231.906 310.276 224.964C313.91 218.023 316.074 210.407 316.634 202.591C317.195 194.776 316.139 186.929 313.533 179.54C310.928 172.151 306.828 165.377 301.489 159.642C296.15 153.907 289.688 149.334 282.504 146.206C275.319 143.079 267.568 141.465 259.733 141.465Z" fill="#E06714"/>
<path d="M229.177 208.454C234.053 208.454 238.006 204.501 238.006 199.625C238.006 194.749 234.053 190.796 229.177 190.796C224.301 190.796 220.348 194.749 220.348 199.625C220.348 204.501 224.301 208.454 229.177 208.454Z" fill="#2D7484"/>
<path d="M288.279 193.759C291.655 193.759 294.391 191.023 294.391 187.647C294.391 184.271 291.655 181.535 288.279 181.535C284.903 181.535 282.167 184.271 282.167 187.647C282.167 191.023 284.903 193.759 288.279 193.759Z" fill="#E06714"/>
<path d="M254.149 179.714C256.4 179.714 258.224 177.89 258.224 175.639C258.224 173.388 256.4 171.564 254.149 171.564C251.898 171.564 250.074 173.388 250.074 175.639C250.074 177.89 251.898 179.714 254.149 179.714Z" fill="#E06714"/>
<path d="M255.658 233.981C257.909 233.981 259.733 232.157 259.733 229.906C259.733 227.656 257.909 225.831 255.658 225.831C253.407 225.831 251.583 227.656 251.583 229.906C251.583 232.157 253.407 233.981 255.658 233.981Z" fill="#E06714"/>
<path d="M279.207 220.495C282.252 220.495 284.72 218.027 284.72 214.982C284.72 211.937 282.252 209.469 279.207 209.469C276.162 209.469 273.694 211.937 273.694 214.982C273.694 218.027 276.162 220.495 279.207 220.495Z" fill="#2D7484"/>
<path d="M217.216 254.311C218.946 254.311 220.348 252.909 220.348 251.179C220.348 249.449 218.946 248.047 217.216 248.047C215.486 248.047 214.084 249.449 214.084 251.179C214.084 252.909 215.486 254.311 217.216 254.311Z" fill="#007AB1"/>
<path d="M319.913 168.06C321.643 168.06 323.045 166.658 323.045 164.928C323.045 163.198 321.643 161.796 319.913 161.796C318.183 161.796 316.781 163.198 316.781 164.928C316.781 166.658 318.183 168.06 319.913 168.06Z" fill="#007AB1"/>
<path d="M318.011 232.043C316.11 236.078 313.779 239.896 311.059 243.431C308.245 246.945 305.088 250.169 301.633 253.056C298.106 255.895 294.312 258.386 290.305 260.494C282.198 264.656 273.297 267.042 264.195 267.493C261.926 267.514 259.661 267.598 257.401 267.46C255.143 267.334 252.894 267.083 250.664 266.708C241.783 265.282 233.343 261.848 225.989 256.667C233.906 260.364 242.385 262.711 251.076 263.614C259.637 264.45 268.278 263.741 276.588 261.523C280.722 260.398 284.752 258.92 288.634 257.107C292.502 255.231 296.216 253.051 299.74 250.589C303.237 248.033 306.53 245.209 309.59 242.144C312.628 238.977 315.442 235.602 318.011 232.043V232.043ZM193.834 211.85C190.697 200.302 190.947 188.095 194.556 176.686C196.344 170.939 198.914 165.465 202.194 160.419C203.837 157.895 205.654 155.488 207.631 153.215C209.593 150.927 211.705 148.773 213.955 146.767C216.221 144.78 218.608 142.935 221.104 141.245C222.383 140.45 223.617 139.581 224.942 138.862L226.905 137.744L228.924 136.731C230.261 136.04 231.67 135.496 233.042 134.884C234.456 134.368 235.838 133.772 237.281 133.341C240.129 132.389 243.043 131.645 246 131.115C251.891 130.075 257.897 129.841 263.852 130.421C269.744 131.022 275.518 132.473 280.995 134.729C275.351 133.282 269.558 132.494 263.733 132.381C257.981 132.295 252.239 132.896 246.63 134.172C241.07 135.482 235.695 137.478 230.628 140.114C228.101 141.422 225.654 142.88 223.3 144.478C220.964 146.101 218.729 147.864 216.607 149.758C208.022 157.339 201.456 166.936 197.501 177.685C193.541 188.611 192.282 200.333 193.834 211.85V211.85Z" fill="#007AB1"/>
<path d="M150.269 257.512V280.677C150.269 300.796 151.488 302.32 173.13 304.453V312.989H101.803V304.453C124.664 302.32 126.188 300.491 126.188 280.372V257.512H45.7163V248.367C74.6741 207.216 106.07 162.713 136.552 120.343H150.269V242.879H180.141V257.512L150.269 257.512ZM126.188 152.35C106.985 180.392 85.6472 211.483 64.6152 242.879H126.188V152.35ZM451.426 257.512V280.677C451.426 300.796 452.646 302.32 474.288 304.453V312.989H402.96V304.453C425.821 302.32 427.345 300.491 427.345 280.372V257.512H346.874V248.367C375.832 207.216 407.228 162.713 437.71 120.343H451.426V242.879H481.299V257.512L451.426 257.512ZM427.345 152.35C408.142 180.392 386.805 211.483 365.773 242.879H427.345V152.35Z" fill="#0EA5E9"/>
<path d="M499.439 68.6987C499.435 77.4351 495.964 85.8127 489.787 91.9916C483.611 98.1705 475.235 101.646 466.499 101.653H343.411C337.145 101.654 331.099 99.3378 326.438 95.1507C321.776 90.9636 318.826 85.2009 318.156 78.9706C317.486 72.7403 319.143 66.4823 322.809 61.3999C326.474 56.3174 331.888 52.7693 338.011 51.4376C338.501 44.0236 341.789 37.0725 347.21 31.9911C352.631 26.9097 359.78 24.0774 367.21 24.0674C370.219 24.0676 373.209 24.5452 376.068 25.4825C380.405 17.0928 387.208 10.2327 395.561 5.82511C403.915 1.41752 413.417 -0.326162 422.791 0.828631C432.165 1.98342 440.96 5.98129 447.994 12.2844C455.027 18.5876 459.962 26.8936 462.134 36.0852C466.785 35.4567 471.517 35.8306 476.011 37.1819C480.506 38.5331 484.66 40.8304 488.193 43.9196C491.727 47.0087 494.558 50.8181 496.498 55.0919C498.438 59.3658 499.44 64.0052 499.439 68.6987ZM499.266 326.374C499.263 333.007 496.628 339.368 491.938 344.059C487.249 348.75 480.89 351.388 474.257 351.394H380.807C376.05 351.394 371.46 349.636 367.921 346.457C364.382 343.278 362.142 338.903 361.634 334.173C361.125 329.443 362.383 324.692 365.166 320.833C367.949 316.974 372.059 314.281 376.708 313.27C377.08 307.641 379.576 302.364 383.692 298.506C387.808 294.648 393.235 292.497 398.876 292.49C401.161 292.49 403.43 292.853 405.601 293.564C408.894 287.195 414.059 281.986 420.401 278.64C426.743 275.294 433.957 273.97 441.074 274.847C448.191 275.723 454.868 278.759 460.208 283.544C465.548 288.329 469.294 294.636 470.943 301.614C474.474 301.137 478.067 301.421 481.479 302.446C484.892 303.472 488.045 305.217 490.728 307.562C493.411 309.907 495.561 312.799 497.033 316.044C498.506 319.289 499.267 322.811 499.266 326.374V326.374Z" fill="#0091B0"/>
</svg>
