<svg width="10" height="7" viewBox="0 0 10 7" fill="none" xmlns="http://www.w3.org/2000/svg">
<path d="M6.6674 3.5C6.6674 3.81998 6.56968 4.13277 6.3866 4.39882C6.20352 4.66487 5.9433 4.87224 5.63884 4.99469C5.33439 5.11714 4.99938 5.14918 4.67617 5.08675C4.35297 5.02433 4.05608 4.87024 3.82306 4.64398C3.59004 4.41772 3.43136 4.12945 3.36707 3.81562C3.30278 3.50179 3.33577 3.1765 3.46188 2.88088C3.58799 2.58526 3.80155 2.33259 4.07555 2.15482C4.34955 1.97705 4.67169 1.88216 5.00123 1.88216C5.44312 1.88216 5.86692 2.05261 6.17939 2.35602C6.49186 2.65942 6.6674 3.07092 6.6674 3.5ZM8.33357 3.5C8.33458 2.70397 8.03236 1.9357 7.48507 1.34302C7.45612 1.31058 7.4208 1.28407 7.38119 1.26502C7.34157 1.24596 7.29845 1.23476 7.25433 1.23204C7.21022 1.22933 7.16598 1.23517 7.12421 1.24922C7.08244 1.26327 7.04396 1.28525 7.01103 1.31388C6.97809 1.34251 6.95134 1.37721 6.93236 1.41597C6.91337 1.45474 6.90251 1.49678 6.90042 1.53966C6.89833 1.58253 6.90504 1.62538 6.92017 1.66572C6.9353 1.70605 6.95855 1.74305 6.98855 1.77458C7.42568 2.24915 7.66734 2.86351 7.66734 3.5002C7.66734 4.13689 7.42568 4.75125 6.98855 5.22583C6.93126 5.29 6.90225 5.37346 6.90778 5.45822C6.9133 5.54297 6.95292 5.62222 7.01809 5.67886C7.08326 5.7355 7.16875 5.765 7.25611 5.76098C7.34348 5.75696 7.42571 5.71975 7.48507 5.65739C8.03225 5.06448 8.33444 4.29613 8.33357 3.5ZM3.0139 1.77458C3.0439 1.74305 3.06715 1.70605 3.08228 1.66572C3.09741 1.62538 3.10412 1.58253 3.10203 1.53966C3.09994 1.49678 3.08908 1.45474 3.0701 1.41597C3.05111 1.37721 3.02436 1.34251 2.99143 1.31388C2.95849 1.28525 2.92001 1.26327 2.87824 1.24922C2.83647 1.23517 2.79223 1.22933 2.74812 1.23204C2.704 1.23476 2.66088 1.24596 2.62126 1.26502C2.58165 1.28407 2.54634 1.31058 2.51738 1.34302C1.97037 1.93601 1.6679 2.70412 1.6679 3.5002C1.6679 4.29629 1.97037 5.06439 2.51738 5.65739C2.57674 5.71975 2.65898 5.75696 2.74634 5.76098C2.8337 5.765 2.91919 5.7355 2.98436 5.67886C3.04953 5.62222 3.08915 5.54297 3.09467 5.45822C3.1002 5.37346 3.07119 5.29 3.0139 5.22583C2.57634 4.75145 2.3344 4.13702 2.3344 3.5002C2.3344 2.86338 2.57634 2.24895 3.0139 1.77458ZM9.60694 1.61279C9.36305 1.05042 9.01168 0.537973 8.57142 0.102542C8.54107 0.0710375 8.50454 0.0457434 8.46398 0.0281466C8.42342 0.0105498 8.37965 0.00100559 8.33523 7.52667e-05C8.29082 -0.000855061 8.24666 0.00684718 8.20535 0.0227292C8.16405 0.0386112 8.12643 0.0623524 8.09471 0.0925564C8.063 0.12276 8.03782 0.158817 8.02066 0.198607C8.00351 0.238397 7.99472 0.281116 7.99481 0.324253C7.99491 0.367389 8.00388 0.410072 8.02121 0.44979C8.03854 0.489509 8.06388 0.525463 8.09572 0.555536C8.88996 1.34125 9.33492 2.39824 9.33492 3.49919C9.33492 4.60014 8.88996 5.65713 8.09572 6.44285C8.06498 6.47317 8.04069 6.50909 8.02424 6.54853C8.0078 6.58797 7.99951 6.63017 7.99986 6.67273C8.0002 6.71528 8.00918 6.75735 8.02627 6.79653C8.04337 6.83572 8.06824 6.87125 8.09947 6.9011C8.13071 6.93095 8.16769 6.95453 8.20831 6.9705C8.24893 6.98648 8.2924 6.99452 8.33622 6.99419C8.38005 6.99385 8.42337 6.98513 8.46373 6.96853C8.50408 6.95194 8.54068 6.92779 8.57142 6.89746C9.26131 6.21338 9.72765 5.34663 9.91189 4.40605C10.0961 3.46547 9.99003 2.493 9.60694 1.61077V1.61279ZM1.00949 5.13725C0.676525 4.37298 0.584049 3.5301 0.743722 2.71488C0.903396 1.89965 1.30807 1.14857 1.90673 0.556345C1.9687 0.495094 2.00308 0.412446 2.0023 0.326583C2.00152 0.24072 1.96564 0.158675 1.90256 0.098497C1.83948 0.0383189 1.75436 0.00493735 1.66593 0.00569586C1.57751 0.00645437 1.49301 0.0412908 1.43103 0.102542C0.513882 1.00915 0 2.22917 0 3.5C0 4.77083 0.513882 5.99085 1.43103 6.89746C1.46138 6.92896 1.49791 6.95426 1.53847 6.97185C1.57903 6.98945 1.6228 6.99899 1.66722 6.99992C1.71163 7.00085 1.75579 6.99315 1.7971 6.97727C1.8384 6.96139 1.87602 6.93765 1.90774 6.90744C1.93945 6.87724 1.96463 6.84118 1.98179 6.80139C1.99894 6.7616 2.00773 6.71888 2.00764 6.67575C2.00755 6.63261 1.99857 6.58993 1.98124 6.55021C1.96391 6.51049 1.93857 6.47454 1.90673 6.44446C1.52545 6.06755 1.22102 5.62402 1.00949 5.13725Z" fill="#FACC15"/>
</svg>
