<svg width="10" height="10" viewBox="0 0 10 10" fill="none" xmlns="http://www.w3.org/2000/svg">
<path d="M5 0C4.0111 0 3.0444 0.293245 2.22215 0.842652C1.3999 1.39206 0.759043 2.17295 0.380604 3.08658C0.0021664 4.00021 -0.0968502 5.00555 0.0960758 5.97545C0.289002 6.94536 0.765206 7.83627 1.46447 8.53553C2.16373 9.23479 3.05465 9.711 4.02455 9.90392C4.99445 10.0969 5.99979 9.99783 6.91342 9.6194C7.82705 9.24096 8.60794 8.6001 9.15735 7.77785C9.70676 6.9556 10 5.98891 10 5C10 3.67392 9.47322 2.40215 8.53553 1.46447C7.59785 0.526784 6.32608 0 5 0ZM5 9.375C4.13471 9.375 3.28885 9.11841 2.56938 8.63768C1.84992 8.15695 1.28916 7.47367 0.958029 6.67424C0.626896 5.87481 0.540256 4.99515 0.709067 4.14648C0.877877 3.29781 1.29456 2.51826 1.90641 1.90641C2.51826 1.29455 3.29781 0.877875 4.14648 0.709064C4.99515 0.540254 5.87481 0.626894 6.67424 0.958027C7.47367 1.28916 8.15695 1.84991 8.63768 2.56938C9.11841 3.28884 9.375 4.13471 9.375 5C9.375 6.16032 8.91406 7.27312 8.09359 8.09359C7.27312 8.91406 6.16032 9.375 5 9.375Z" fill="#15803D"/>
<path d="M5.28747 5.125V2.73437C5.28747 2.65149 5.25455 2.57201 5.19595 2.5134C5.13734 2.4548 5.05785 2.42187 4.97497 2.42187C4.89209 2.42187 4.81261 2.4548 4.754 2.5134C4.6954 2.57201 4.66247 2.65149 4.66247 2.73437V5.45937L6.50622 6.70937C6.54019 6.73492 6.579 6.75327 6.6203 6.7633C6.6616 6.77333 6.70451 6.77483 6.7464 6.76772C6.7883 6.7606 6.82831 6.74501 6.86397 6.72191C6.89964 6.6988 6.93022 6.66866 6.95384 6.63334C6.97746 6.59801 6.99363 6.55823 7.00136 6.51645C7.00908 6.47466 7.00821 6.43173 6.99878 6.39029C6.98935 6.34885 6.97157 6.30977 6.94652 6.27544C6.92147 6.24111 6.88968 6.21225 6.8531 6.19062L5.28747 5.125Z" fill="#15803D"/>
<path d="M1.87491 4.98129C1.87205 4.41911 2.02182 3.8667 2.30823 3.38295C2.59465 2.8992 3.00698 2.50224 3.50127 2.23441C3.99555 1.96658 4.55325 1.83792 5.11491 1.86213C5.67657 1.88634 6.22114 2.06253 6.69053 2.37191L6.95616 1.94691C6.5103 1.65485 6.00528 1.46516 5.47739 1.39147C4.9495 1.31778 4.41185 1.36192 3.90305 1.52072C3.39425 1.67952 2.92693 1.94904 2.53467 2.30991C2.14241 2.67078 1.83494 3.11405 1.63436 3.60787C1.43377 4.10169 1.34505 4.63381 1.37455 5.166C1.40406 5.69819 1.55107 6.21724 1.80502 6.68586C2.05897 7.15448 2.41355 7.56104 2.8433 7.87634C3.27305 8.19163 3.7673 8.40783 4.29053 8.50941L4.37491 8.03129C3.67116 7.88764 3.03837 7.50594 2.58304 6.95044C2.12771 6.39494 1.87764 5.69955 1.87491 4.98129Z" fill="#15803D"/>
</svg>
