<svg width="10" height="9" viewBox="0 0 10 9" fill="none" xmlns="http://www.w3.org/2000/svg">
<path d="M2.06931 0.409048C2.06931 0.300561 2.03298 0.196519 1.96832 0.119807C1.90365 0.043096 1.81595 0 1.7245 0C1.63305 0 1.54534 0.043096 1.48068 0.119807C1.41601 0.196519 1.37969 0.300561 1.37969 0.409048V7.60256L0.589375 6.6642C0.524629 6.58739 0.436814 6.54424 0.345248 6.54424C0.253683 6.54424 0.165867 6.58739 0.101121 6.6642C0.0363743 6.74101 2.15736e-09 6.84518 0 6.95381C-2.15736e-09 7.06243 0.0363743 7.16661 0.101121 7.24341L1.48037 8.87879L1.4852 8.88451C1.54994 8.9594 1.637 9.0009 1.72742 8.99999C1.81784 8.99907 1.90429 8.9558 1.96794 8.8796L3.34719 7.24341C3.37925 7.20544 3.40469 7.16034 3.42205 7.1107C3.43942 7.06106 3.44838 7.00784 3.44841 6.9541C3.44844 6.90035 3.43955 6.84712 3.42224 6.79745C3.40493 6.74778 3.37955 6.70264 3.34753 6.66461C3.31552 6.62658 3.2775 6.5964 3.23566 6.5758C3.19381 6.55519 3.14895 6.54457 3.10365 6.54453C3.05834 6.54449 3.01347 6.55504 2.9716 6.57558C2.92973 6.59611 2.89168 6.62622 2.85962 6.6642L2.06931 7.60256V0.409048ZM4.483 1.22714C4.483 1.11866 4.51933 1.01461 4.58399 0.937902C4.64866 0.861191 4.73636 0.818095 4.82781 0.818095H9.65519C9.74664 0.818095 9.83434 0.861191 9.89901 0.937902C9.96367 1.01461 10 1.11866 10 1.22714C10 1.33563 9.96367 1.43967 9.89901 1.51638C9.83434 1.59309 9.74664 1.63619 9.65519 1.63619H4.82781C4.73636 1.63619 4.64866 1.59309 4.58399 1.51638C4.51933 1.43967 4.483 1.33563 4.483 1.22714ZM4.82781 3.27238C4.73636 3.27238 4.64866 3.31548 4.58399 3.39219C4.51933 3.4689 4.483 3.57294 4.483 3.68143C4.483 3.78991 4.51933 3.89396 4.58399 3.97067C4.64866 4.04738 4.73636 4.09048 4.82781 4.09048H8.27594C8.36739 4.09048 8.45509 4.04738 8.51976 3.97067C8.58442 3.89396 8.62075 3.78991 8.62075 3.68143C8.62075 3.57294 8.58442 3.4689 8.51976 3.39219C8.45509 3.31548 8.36739 3.27238 8.27594 3.27238H4.82781ZM4.82781 5.72667C4.73636 5.72667 4.64866 5.76976 4.58399 5.84647C4.51933 5.92318 4.483 6.02723 4.483 6.13571C4.483 6.2442 4.51933 6.34824 4.58399 6.42495C4.64866 6.50166 4.73636 6.54476 4.82781 6.54476H6.89669C6.98814 6.54476 7.07584 6.50166 7.14051 6.42495C7.20517 6.34824 7.2415 6.2442 7.2415 6.13571C7.2415 6.02723 7.20517 5.92318 7.14051 5.84647C7.07584 5.76976 6.98814 5.72667 6.89669 5.72667H4.82781ZM4.82781 8.18095C4.73636 8.18095 4.64866 8.22405 4.58399 8.30076C4.51933 8.37747 4.483 8.48151 4.483 8.59C4.483 8.69848 4.51933 8.80253 4.58399 8.87924C4.64866 8.95595 4.73636 8.99905 4.82781 8.99905H5.51744C5.60889 8.99905 5.69659 8.95595 5.76126 8.87924C5.82592 8.80253 5.86225 8.69848 5.86225 8.59C5.86225 8.48151 5.82592 8.37747 5.76126 8.30076C5.69659 8.22405 5.60889 8.18095 5.51744 8.18095H4.82781Z" fill="#22C55E"/>
</svg>
