<svg width="10" height="10" viewBox="0 0 10 10" fill="none" xmlns="http://www.w3.org/2000/svg">
<path d="M5 0C5.09062 3.82149e-06 5.17817 0.0328217 5.24647 0.0923846C5.31477 0.151947 5.35918 0.234226 5.37151 0.324004L5.37501 0.375004V1.26901C6.23588 1.35548 7.04038 1.73697 7.65213 2.3488C8.26388 2.96063 8.64524 3.76517 8.73159 4.62605L8.75009 4.62505H9.62511C9.72012 4.62508 9.81158 4.66118 9.88101 4.72604C9.95043 4.79091 9.99265 4.87971 9.99913 4.9745C10.0056 5.06929 9.97586 5.16301 9.9159 5.23671C9.85594 5.31041 9.77023 5.35861 9.67611 5.37156L9.62511 5.37506L8.73109 5.37456C8.64472 6.23552 8.26329 7.04012 7.65144 7.65196C7.03959 8.26381 6.23497 8.64524 5.37401 8.7316L5.37501 8.7501V9.62511C5.37498 9.72012 5.33889 9.81158 5.27402 9.88101C5.20915 9.95043 5.12035 9.99265 5.02556 9.99913C4.93077 10.0056 4.83705 9.97586 4.76335 9.9159C4.68964 9.85594 4.64144 9.77024 4.62849 9.67611L4.62499 9.62511L4.62549 8.7311C3.76453 8.64474 2.95991 8.26331 2.34806 7.65146C1.73621 7.03962 1.35478 6.23502 1.26841 5.37406L1.24991 5.37506H0.374894C0.27988 5.37503 0.188419 5.33894 0.118993 5.27407C0.0495655 5.20921 0.00734886 5.12041 0.000872712 5.02562C-0.00560343 4.93083 0.0241438 4.83711 0.0841038 4.7634C0.144064 4.6897 0.229766 4.6415 0.323893 4.62855L0.374894 4.62505H1.26891C1.35538 3.76419 1.73687 2.9597 2.34871 2.34796C2.96055 1.73622 3.7651 1.35486 4.62599 1.26851L4.62499 1.25001V0.375004C4.62499 0.275547 4.6645 0.180163 4.73483 0.109836C4.80516 0.0395092 4.90054 0 5 0ZM5 2.00002C4.20433 2.00002 3.44125 2.3161 2.87863 2.87871C2.31601 3.44133 1.99993 4.2044 1.99993 5.00006C1.99993 5.79572 2.31601 6.55879 2.87863 7.1214C3.44125 7.68402 4.20433 8.00009 5 8.00009C5.79567 8.00009 6.55875 7.68402 7.12137 7.1214C7.68399 6.55879 8.00007 5.79572 8.00007 5.00006C8.00007 4.2044 7.68399 3.44133 7.12137 2.87871C6.55875 2.3161 5.79567 2.00002 5 2.00002ZM5 3.00003C5.53045 3.00003 6.03916 3.21075 6.41425 3.58583C6.78933 3.9609 7.00005 4.46962 7.00005 5.00006C7.00005 5.5305 6.78933 6.03921 6.41425 6.41429C6.03916 6.78936 5.53045 7.00008 5 7.00008C4.46955 7.00008 3.96084 6.78936 3.58575 6.41429C3.21067 6.03921 2.99995 5.5305 2.99995 5.00006C2.99995 4.46962 3.21067 3.9609 3.58575 3.58583C3.96084 3.21075 4.46955 3.00003 5 3.00003Z" fill="#0EA5E9"/>
</svg>
