<svg
 xmlns="http://www.w3.org/2000/svg"
 className="h-6 w-6"
 fill="none"
 viewBox="0 0 24 24"
 stroke="currentColor"
 >
 <path
    strokeLinecap="round"
    strokeLinejoin="round"
    strokeWidth={2}
    d="M12 3v1m0 16v1m9-9h-1m-9 9h1m-6 0a1 1 0 001 1v.25a1 1 0 001 1v.25a1 1 0 001 1v.25a1 1 0 001 1v.25m-12 0a1 1 0 001 1v.25a1 1 0 001 1v.25a1 1 0 001 1v.25a1 1 0 001 1v.25m-12 0a1 1 0 001 1v.25a1 1 0 001 1v.25a1 1 0 001 1v.25a1 1 0 001 1v.25m-12 0a1 1 0 001 1v.25a1 1 0 001 1v.25a1 1 0 001 1v.25a1 1 0 001 1v.25m-12 0a1 1 0 001 1v.25a1 1 0 001 1v.25a1 1 0 001 1v.25a1 1 0 001 1v.25m-12 0a1 1 0 001 1v.25a1 1 0 001 1v.25a1 1 0 001 1v.25a1 1 0 001 1v.25m-12 0a1 1 0 001 1v.25a1 1 0 001 1v.25a1 1 0 001 1v.25a1 1 0 001 1v.25m0-24h24"
          />
</svg>