<svg width="10" height="12" viewBox="0 0 10 12" fill="none" xmlns="http://www.w3.org/2000/svg">
<path d="M7.39847 8.4L6.94506 9.26964L9.16506 8.89944C8.71706 8.67024 8.11059 8.50644 7.39847 8.4ZM1.67965 8.5896C0.651412 8.8662 0 9.31944 0 9.99264C0.000423387 10.1376 0.0314823 10.2807 0.0910588 10.4123L3.654 9.81828L1.67965 8.5896ZM9.91647 9.6L4.95765 10.4244L6.26541 11.9419C8.41294 11.7457 10 11.046 10 9.99264C10 9.85224 9.97035 9.72168 9.91647 9.6ZM4.11976 10.5667L0.769176 11.1253C1.65482 11.6849 3.218 12 5 12C5.108 12 5.21353 11.9969 5.31988 11.9946L4.11976 10.5667Z" fill="#F59E0B"/>
<path d="M5.00024 0C3.08259 0 1.50918 1.59996 1.50918 3.55152C1.50918 4.30176 1.74294 5.00064 2.13765 5.57532L4.40047 9.56532L4.41012 9.57816C4.49941 9.69708 4.58659 9.79092 4.68894 9.85992C4.79129 9.92904 4.91835 9.97032 5.04306 9.9576C5.29224 9.93216 5.44482 9.75264 5.58965 9.55248L5.59741 9.54216L8.09553 5.20524L8.09694 5.20248C8.15553 5.09448 8.19882 4.98456 8.23553 4.87752C8.40404 4.45656 8.49074 4.00622 8.49082 3.55152C8.49082 1.59996 6.91788 0 5.00024 0ZM5.00024 2.0454C5.83212 2.0454 6.48141 2.70648 6.48141 3.5514C6.48141 4.39656 5.83212 5.0574 5.00024 5.0574C4.16824 5.0574 3.51859 4.39644 3.51859 3.5514C3.51859 2.7066 4.16835 2.0454 5.00024 2.0454Z" fill="#F59E0B"/>
</svg>
