<svg width="10" height="10" viewBox="0 0 10 10" fill="none" xmlns="http://www.w3.org/2000/svg">
<path d="M3.42584 10C3.36021 10 3.30367 9.9813 3.25621 9.94389C3.20876 9.90648 3.17353 9.85611 3.15055 9.79278L1.77576 5.27778H0V4.72222H1.97876C2.04178 4.72222 2.09721 4.73907 2.14504 4.77278C2.1925 4.80685 2.22772 4.85556 2.25071 4.91889L3.39247 8.62056L5.265 0.230556C5.27872 0.165 5.30968 0.110185 5.35788 0.0661111C5.40645 0.022037 5.46354 0 5.52917 0C5.59479 0 5.65189 0.0214814 5.70046 0.0644444C5.74903 0.107407 5.77999 0.161667 5.79334 0.227222L7.15255 6.03722L8.15583 2.82444C8.17882 2.76148 8.21404 2.71111 8.2615 2.67333C8.30896 2.6363 8.36438 2.61778 8.42778 2.61778C8.49118 2.61778 8.5442 2.63407 8.58684 2.66667C8.62948 2.69926 8.6634 2.7463 8.68861 2.80778L9.41605 4.72222H10V5.27778H9.20861C9.14521 5.27778 9.092 5.2613 9.049 5.22833C9.00636 5.19574 8.97262 5.15241 8.94778 5.09833L8.44836 3.74889L7.37334 7.17556C7.35035 7.23852 7.31643 7.28926 7.27156 7.32778C7.2267 7.3663 7.17146 7.38444 7.10583 7.38222C7.04021 7.38037 6.98256 7.35778 6.93287 7.31444C6.88282 7.27148 6.85093 7.21833 6.83722 7.155L5.52917 1.53111L3.69724 9.77222C3.67647 9.83778 3.64255 9.89148 3.59546 9.93333C3.548 9.97556 3.49146 9.99778 3.42584 10Z" fill="#0EA5E9"/>
</svg>
