<svg width="10" height="10" viewBox="0 0 10 10" fill="none" xmlns="http://www.w3.org/2000/svg">
<path d="M0 9.97697V9.37091C0.252632 9.34747 0.493509 9.27414 0.722632 9.15091C0.952105 9.02768 1.20684 8.85414 1.48684 8.6303C1.76368 8.86747 2.05439 9.05151 2.35895 9.18242C2.66351 9.31333 2.96053 9.37879 3.25 9.37879C3.54614 9.37879 3.85053 9.31576 4.16316 9.1897C4.47544 9.06404 4.75877 8.88545 5.01316 8.65394C5.28684 8.89798 5.57123 9.0798 5.86632 9.19939C6.16105 9.31899 6.46439 9.37879 6.77632 9.37879C7.07947 9.37879 7.36737 9.32081 7.64 9.20485C7.91298 9.08929 8.21281 8.89798 8.53947 8.63091C8.81421 8.85596 9.06614 9.02768 9.29526 9.14606C9.52474 9.26485 9.75965 9.3396 10 9.3703V9.97636C9.76702 9.95333 9.53 9.89374 9.28895 9.79758C9.0479 9.70141 8.79807 9.56646 8.53947 9.39273C8.24544 9.59475 7.94877 9.74647 7.64947 9.84788C7.35018 9.94929 7.05912 10 6.77632 10C6.49351 10 6.20088 9.94747 5.89842 9.84242C5.59596 9.73737 5.29754 9.58364 5.00316 9.38121C4.73509 9.58081 4.45088 9.73374 4.15053 9.84C3.85018 9.94626 3.55 9.9996 3.25 10C2.96509 10 2.67368 9.94869 2.37579 9.84606C2.07754 9.74343 1.78123 9.59232 1.48684 9.39273C1.2486 9.55151 1.00281 9.68081 0.749474 9.78061C0.49614 9.8804 0.246316 9.94586 0 9.97697ZM0 7.85576V6.36364C0 5.45374 0.152632 4.6095 0.457895 3.83091C0.763158 3.05232 1.18597 2.37899 1.72632 1.81091C2.26667 1.24283 2.90684 0.79899 3.64684 0.479394C4.38684 0.159798 5.18877 0 6.05263 0C6.26807 0 6.48123 0.00989886 6.69211 0.0296968C6.90298 0.0494948 7.09544 0.0781818 7.26947 0.115758C7.13263 0.407879 7.02719 0.711717 6.95316 1.02727C6.87912 1.34323 6.84211 1.64222 6.84211 1.92424C6.84211 2.56545 7.0386 3.11212 7.43158 3.56424C7.82456 4.01636 8.29895 4.24242 8.85474 4.24242H10V4.84848H8.85526C8.14895 4.84848 7.54895 4.56444 7.05526 3.99636C6.56158 3.42828 6.31509 2.73758 6.31579 1.92424C6.31579 1.71293 6.33632 1.48626 6.37737 1.24424C6.41842 1.00222 6.47 0.786061 6.53211 0.595757C5.70088 0.761818 5.01842 1.18505 4.48474 1.86545C3.95105 2.54545 3.68421 3.34162 3.68421 4.25394C3.68421 4.7497 3.7414 5.20828 3.85579 5.6297C3.97018 6.05111 4.15667 6.48222 4.41526 6.92303C4.50544 6.87253 4.60351 6.80667 4.70947 6.72545L5.01 6.49758C5.27807 6.73677 5.57193 6.92323 5.89158 7.05697C6.21123 7.19071 6.50614 7.25758 6.77632 7.25758C7.03947 7.25758 7.32825 7.1901 7.64263 7.05515C7.95702 6.92061 8.25597 6.73475 8.53947 6.49758C8.79983 6.70889 9.04965 6.87939 9.28895 7.00909C9.52825 7.13879 9.76526 7.21899 10 7.2497V7.85576C9.78737 7.83232 9.56211 7.77071 9.32421 7.67091C9.08632 7.57111 8.82474 7.42646 8.53947 7.23697C8.23175 7.45434 7.9314 7.61576 7.63842 7.72121C7.34579 7.82626 7.05842 7.87879 6.77632 7.87879C6.50754 7.87879 6.21368 7.82061 5.89474 7.70424C5.57579 7.58788 5.28193 7.43212 5.01316 7.23697C4.68053 7.47535 4.38018 7.64121 4.11211 7.73455C3.84404 7.82788 3.55667 7.87596 3.25 7.87879C2.94333 7.88162 2.65246 7.83616 2.37737 7.74242C2.10228 7.64869 1.80544 7.49172 1.48684 7.27152C1.2486 7.4303 1.00281 7.5596 0.749474 7.65939C0.49614 7.75879 0.246316 7.82465 0 7.85576ZM3.22368 7.25758C3.3486 7.25758 3.47351 7.24788 3.59842 7.22849C3.72298 7.20909 3.82754 7.18283 3.91211 7.1497C3.64474 6.65596 3.45228 6.18384 3.33474 5.73333C3.21684 5.28242 3.15789 4.7895 3.15789 4.25455C3.15789 3.33495 3.37754 2.52687 3.81684 1.8303C4.25614 1.13374 4.86982 0.612525 5.65789 0.266667V0.641818C4.91825 0.694343 4.23561 0.873131 3.61 1.17818C2.98404 1.48323 2.44544 1.88364 1.99421 2.37939C1.54298 2.87515 1.1886 3.45697 0.931053 4.12485C0.673509 4.79273 0.539649 5.51596 0.529474 6.29455V7.06364C0.694737 7.01152 0.861053 6.93838 1.02842 6.84424C1.19579 6.7501 1.3486 6.64646 1.48684 6.53333C1.79772 6.7903 2.08649 6.97535 2.35316 7.08849C2.61982 7.20162 2.91 7.25758 3.22368 7.25758Z" fill="#C026D3"/>
</svg>
