<svg width="10" height="10" viewBox="0 0 10 10" fill="none" xmlns="http://www.w3.org/2000/svg">
<path d="M5 9.375C3.83968 9.375 2.72688 8.91406 1.90641 8.09359C1.08594 7.27312 0.625 6.16032 0.625 5C0.625 3.83968 1.08594 2.72688 1.90641 1.90641C2.72688 1.08594 3.83968 0.625 5 0.625C6.16032 0.625 7.27312 1.08594 8.09359 1.90641C8.91406 2.72688 9.375 3.83968 9.375 5C9.375 6.16032 8.91406 7.27312 8.09359 8.09359C7.27312 8.91406 6.16032 9.375 5 9.375ZM5 10C6.32608 10 7.59785 9.47322 8.53553 8.53553C9.47322 7.59785 10 6.32608 10 5C10 3.67392 9.47322 2.40215 8.53553 1.46447C7.59785 0.526784 6.32608 0 5 0C3.67392 0 2.40215 0.526784 1.46447 1.46447C0.526784 2.40215 0 3.67392 0 5C0 6.32608 0.526784 7.59785 1.46447 8.53553C2.40215 9.47322 3.67392 10 5 10Z" fill="#EF4444"/>
<path d="M5 8.125C4.1712 8.125 3.37634 7.79576 2.79029 7.20971C2.20424 6.62366 1.875 5.8288 1.875 5C1.875 4.1712 2.20424 3.37634 2.79029 2.79029C3.37634 2.20424 4.1712 1.875 5 1.875C5.8288 1.875 6.62366 2.20424 7.20971 2.79029C7.79576 3.37634 8.125 4.1712 8.125 5C8.125 5.8288 7.79576 6.62366 7.20971 7.20971C6.62366 7.79576 5.8288 8.125 5 8.125ZM5 8.75C5.49246 8.75 5.98009 8.653 6.43506 8.46455C6.89003 8.27609 7.30343 7.99987 7.65165 7.65165C7.99987 7.30343 8.27609 6.89003 8.46455 6.43506C8.653 5.98009 8.75 5.49246 8.75 5C8.75 4.50754 8.653 4.01991 8.46455 3.56494C8.27609 3.10997 7.99987 2.69657 7.65165 2.34835C7.30343 2.00013 6.89003 1.72391 6.43506 1.53545C5.98009 1.347 5.49246 1.25 5 1.25C4.00544 1.25 3.05161 1.64509 2.34835 2.34835C1.64509 3.05161 1.25 4.00544 1.25 5C1.25 5.99456 1.64509 6.94839 2.34835 7.65165C3.05161 8.35491 4.00544 8.75 5 8.75Z" fill="#EF4444"/>
<path d="M5 6.875C4.50272 6.875 4.02581 6.67746 3.67418 6.32583C3.32254 5.9742 3.125 5.49728 3.125 5C3.125 4.50272 3.32254 4.02581 3.67418 3.67418C4.02581 3.32254 4.50272 3.125 5 3.125C5.49728 3.125 5.9742 3.32254 6.32583 3.67418C6.67746 4.02581 6.875 4.50272 6.875 5C6.875 5.49728 6.67746 5.9742 6.32583 6.32583C5.9742 6.67746 5.49728 6.875 5 6.875ZM5 7.5C5.66304 7.5 6.29893 7.23661 6.76777 6.76777C7.23661 6.29893 7.5 5.66304 7.5 5C7.5 4.33696 7.23661 3.70107 6.76777 3.23223C6.29893 2.76339 5.66304 2.5 5 2.5C4.33696 2.5 3.70107 2.76339 3.23223 3.23223C2.76339 3.70107 2.5 4.33696 2.5 5C2.5 5.66304 2.76339 6.29893 3.23223 6.76777C3.70107 7.23661 4.33696 7.5 5 7.5Z" fill="#EF4444"/>
<path d="M5.9375 5C5.9375 5.24864 5.83873 5.4871 5.66291 5.66291C5.4871 5.83873 5.24864 5.9375 5 5.9375C4.75136 5.9375 4.5129 5.83873 4.33709 5.66291C4.16127 5.4871 4.0625 5.24864 4.0625 5C4.0625 4.75136 4.16127 4.5129 4.33709 4.33709C4.5129 4.16127 4.75136 4.0625 5 4.0625C5.24864 4.0625 5.4871 4.16127 5.66291 4.33709C5.83873 4.5129 5.9375 4.75136 5.9375 5Z" fill="#EF4444"/>
</svg>
